# xmcd CD database file
#
# Track frame offsets:
#	150
#	18004
#	37678
#	52639
#	71886
#	90795
#	107429
#	123673
#	141612
#	159861
#	175890
#	196184
#
# Disc length: 2776 seconds
#
# Revision: 5
# Processed by: cddbd v1.4PL0 Copyright (c) Steve Scherf et al.
# Submitted via: CDex 1.40Beta6
#
DISCID=8a0ad60c
DTITLE=Roberta Miranda - Roberta Miranda Vol. 9
DYEAR=1996
DGENRE=Country
TTITLE0=Roberta Miranda - Um Minuto a Mais
TTITLE1=Roberta Miranda - Eu Te Amo, Te Amo, Te Amo
TTITLE2=Roberta Miranda - Pimenta Malagueta
TTITLE3=Roberta Miranda - Caminhos
TTITLE4=Roberta Miranda - Amor Incandescente
TTITLE5=Roberta Miranda - Ninguem me Viu Chorar
TTITLE6=Roberta Miranda - Pra Ninguém Ficar Parado
TTITLE7=Roberta Miranda - O Sol da Manhã
TTITLE8=Roberta Miranda - Dança das Chamas
TTITLE9=Roberta Miranda - Chuva de Amor
TTITLE10=Roberta Miranda - Vai Andorinha
TTITLE11=Roberta Miranda - Chamego e Remelexo
EXTD=0630139592
EXTT0=
EXTT1=
EXTT2=
EXTT3=
EXTT4=
EXTT5=
EXTT6=
EXTT7=
EXTT8=
EXTT9=
EXTT10=
EXTT11=
PLAYORDER=
